<svg width="34" height="34" viewBox="0 0 34 34" fill="none" xmlns="http://www.w3.org/2000/svg">
<path d="M34 17C34 7.61116 26.3888 0 17 0C7.61116 0 0 7.61116 0 17C0 26.3888 7.61116 34 17 34C26.3888 34 34 26.3888 34 17Z" fill="#06A966"/>
<path d="M17.0078 9.29297C21.881 9.29317 25.9043 12.8824 26.6221 17.5479C26.6598 17.7744 26.6882 18.0014 26.707 18.2373C26.7259 18.5016 26.7441 18.766 26.7441 19.0303C26.7441 19.3418 26.7256 19.6533 26.6973 19.9648C26.6878 20.0687 26.6686 20.1637 26.6592 20.2676C26.6309 20.4658 26.6032 20.6738 26.5654 20.8721C26.5465 20.9948 26.5176 21.1084 26.4893 21.2217C26.4515 21.401 26.4046 21.5713 26.3574 21.7412L26.2441 22.1094L26.0742 22.5908C26.027 22.7136 25.9795 22.8362 25.9229 22.959C25.8567 23.1101 25.781 23.2519 25.7148 23.3936C25.6582 23.5162 25.5924 23.639 25.5264 23.7617C25.4508 23.8939 25.3753 24.0169 25.2998 24.1396C25.1298 24.423 24.9405 24.6971 24.7422 24.9521C24.695 25.0181 24.6477 25.0746 24.6006 25.1406C24.4779 25.2917 24.346 25.4336 24.2139 25.5752C24.1572 25.6413 24.1002 25.7074 24.0342 25.7734C23.902 25.9151 23.751 26.0478 23.6094 26.1895C23.5527 26.2461 23.4863 26.3027 23.4297 26.3594C23.2787 26.4915 23.1181 26.6234 22.9482 26.7461C22.8916 26.7839 22.8438 26.8314 22.7871 26.8691C22.6077 27.0013 22.4281 27.1243 22.2393 27.2471C22.211 27.2659 22.1825 27.2849 22.1543 27.3037C21.2666 27.8608 20.2748 28.276 19.2266 28.5215C20.1615 27.8416 20.7753 26.7465 20.7754 25.5C20.7754 23.4317 19.0944 21.7412 17.0166 21.7412C14.9389 21.7413 13.2578 23.4223 13.2578 25.5C13.2579 26.7464 13.8719 27.8415 14.8066 28.5215C13.749 28.2759 12.7666 27.8609 11.8789 27.3037L11.7939 27.2471C11.6051 27.1243 11.4255 27.0014 11.2461 26.8691C11.1895 26.8314 11.1426 26.7933 11.0859 26.7461C10.9255 26.6234 10.7649 26.4915 10.6045 26.3594C10.5385 26.3028 10.4814 26.246 10.4248 26.1895C10.2832 26.0573 10.1416 25.9151 10 25.7734C9.93391 25.7073 9.87696 25.6413 9.82031 25.5752C9.68809 25.4335 9.55539 25.2917 9.43262 25.1406C9.38549 25.084 9.34793 25.0175 9.30078 24.9609C9.0931 24.6966 8.90431 24.4229 8.73438 24.1396C8.65883 24.0169 8.57392 23.8939 8.50781 23.7617C8.4417 23.6389 8.38447 23.5163 8.31836 23.3936C8.24281 23.2519 8.17646 23.1101 8.11035 22.959C8.05376 22.8363 8.00713 22.7135 7.95996 22.5908C7.89385 22.4303 7.83726 22.2787 7.79004 22.1182L7.67676 21.75C7.62954 21.58 7.58172 21.4004 7.54395 21.2305C7.51566 21.1173 7.48762 20.9947 7.46875 20.8721C7.431 20.6739 7.40233 20.4755 7.37402 20.2773C7.36458 20.1735 7.34538 20.0687 7.33594 19.9648C7.30764 19.6629 7.28908 19.3514 7.28906 19.04C7.28906 18.7756 7.30826 18.5105 7.32715 18.2461C7.34604 18.0195 7.37435 17.793 7.41211 17.5664C8.12989 12.8914 12.153 9.30273 17.0264 9.30273L17.0078 9.29297ZM17.002 22.6777C18.5508 22.6777 19.8164 23.9339 19.8164 25.4922C19.8164 27.0505 18.5603 28.3066 17.002 28.3066C15.4436 28.3066 14.1875 27.0505 14.1875 25.4922C14.1875 23.9339 15.4436 22.6777 17.002 22.6777ZM25.748 7.11133C26.2958 7.11133 26.7305 7.55542 26.7305 8.09375V14.6572C25.0594 10.947 21.331 8.35049 16.998 8.34863C12.6652 8.35055 8.93671 10.947 7.26562 14.6572V8.09375C7.26562 7.54597 7.70971 7.11133 8.24805 7.11133H25.748ZM17.0078 11.0967C15.0623 11.0967 13.2386 11.8714 11.8691 13.2881L12.8232 14.2041C13.9377 13.0519 15.4211 12.4189 17.0078 12.4189C18.5943 12.4191 20.0771 13.052 21.1914 14.2041L22.1455 13.2881C20.7856 11.8715 18.9532 11.0968 17.0078 11.0967Z" fill="white"/>
</svg>
